<?xml version="1.0" encoding="UTF-8"?><svg id="Layer_1" xmlns="http://www.w3.org/2000/svg" xmlns:xlink="http://www.w3.org/1999/xlink" viewBox="0 0 190.51 190.48"><defs><style>.cls-1{fill:url(#linear-gradient);}</style><linearGradient id="linear-gradient" x1="172.08" y1="5.13" x2="7.03" y2="174.27" gradientUnits="userSpaceOnUse"><stop offset="0" stop-color="#82efac"/><stop offset="1" stop-color="#23ccf5"/></linearGradient></defs><path class="cls-1" d="m64.67,111.11c-26.95,0-48.79,21.84-48.79,48.79v30.57h33.54c25.31,0,45.84-20.52,45.84-45.84v-33.52h-30.59Zm14.72,33.52c0,16.53-13.44,29.97-29.97,29.97h-17.67v-14.7c0-18.15,14.77-32.92,32.92-32.92h14.72v17.65Zm15.87-97.02v47.62h-47.64C21.32,95.24,0,73.92,0,47.62S21.32,0,47.62,0h.02c26.3,0,47.62,21.32,47.62,47.62Zm55.56-31.75h.01c21.92,0,39.68,17.77,39.68,39.68s-17.77,39.68-39.68,39.68h-39.7v-39.68c0-21.92,17.77-39.68,39.68-39.68Zm23.8,126.98h0c0,17.54-14.21,31.75-31.74,31.75-17.53,0-31.74-14.21-31.74-31.74h0s0-31.75,0-31.75h31.74c17.53,0,31.74,14.21,31.74,31.74Z"/></svg>